<?xml version="1.0" encoding="iso-8859-1"?>
<!-- Generator: Adobe Illustrator 19.0.0, SVG Export Plug-In . SVG Version: 6.00 Build 0)  -->
<svg version="1.1" id="Layer_1" xmlns="http://www.w3.org/2000/svg" xmlns:xlink="http://www.w3.org/1999/xlink" x="0px" y="0px"
	 viewBox="0 0 473.931 473.931" style="enable-background:new 0 0 473.931 473.931;" xml:space="preserve">
<circle style="fill:#3CB881;" cx="236.966" cy="236.966" r="236.966"/>
<path style="fill:#767676;" d="M387.085,206.227c-22.174-79.479-51.509-99.83-78.581-92.276
	c-6.529,1.818-12.325,5.119-17.059,10.159c-13.16,3.959-30.731,8.056-47.15,8.056c-17.496,0-36.31-4.655-49.679-8.831
	c-4.95-5.848-11.188-9.583-18.308-11.573c-27.075-7.555-56.411,12.801-78.584,92.279c-22.174,79.475-18.196,150.026,8.875,157.584
	c22.432,6.256,56.95-26.144,79.617-84.874c12.093-3.704,35.416-14.342,55.894-14.342c18.454,0,41.766,1.725,56.366,5.613
	c26.679,61.159,57.997,98.734,80.856,92.354C406.415,352.818,409.259,285.71,387.085,206.227z"/>
<path style="fill:#ECECEC;" d="M387.085,199.66c-22.174-79.479-51.509-99.834-78.581-92.276
	c-6.529,1.822-12.325,5.115-17.059,10.159c-13.16,3.963-30.731,8.056-47.15,8.056c-17.496,0-36.31-4.655-49.679-8.834
	c-4.95-5.845-11.188-9.583-18.308-11.57c-27.075-7.555-56.411,12.801-78.584,92.279s-18.196,150.03,8.875,157.584
	c22.432,6.256,53.668-32.71,76.336-91.441c12.093-3.704,38.697-11.057,59.172-11.057c18.454,0,43.857,5.972,58.458,9.86
	c22.757,60.624,54.783,101.2,77.638,94.827C405.285,349.69,409.259,279.139,387.085,199.66z"/>
<ellipse style="fill:#E1E1E1;" cx="158.089" cy="155.358" rx="21.616" ry="23.603"/>
<circle style="fill:#818282;" cx="158.089" cy="154.348" r="19.423"/>
<circle style="fill:#4D4D4D;" cx="158.089" cy="154.348" r="14.503"/>
<ellipse style="fill:#E1E1E1;" cx="204.352" cy="213.991" rx="31.741" ry="33.115"/>
<g>
	<g>
		<g>
			<g>
				<path style="fill:#636463;" d="M177.386,221.591c2.971,8.093,9.493,14.458,17.699,17.193v-17.193H177.386z"/>
				<path style="fill:#636463;" d="M213.49,238.627c8.011-2.806,14.361-9.085,17.283-17.04H213.49V238.627z"/>
				<path style="fill:#636463;" d="M195.088,184.809c-8.673,2.889-15.502,9.826-18.204,18.585h18.204L195.088,184.809
					L195.088,184.809z"/>
				<path style="fill:#636463;" d="M231.267,203.395c-2.657-8.617-9.309-15.461-17.781-18.432v18.432H231.267z"/>
			</g>
			<path style="fill:#4D4D4D;" d="M231.267,203.395h-17.781v-18.432c-2.952-1.033-6.11-1.628-9.414-1.628
				c-3.143,0-6.159,0.531-8.988,1.474v18.585h-18.204c-0.819,2.657-1.265,5.478-1.265,8.4c0,3.446,0.644,6.735,1.77,9.792h17.699
				v17.193c2.829,0.943,5.848,1.474,8.988,1.474c3.304,0,6.462-0.591,9.414-1.628v-17.04h17.283
				c1.119-3.057,1.762-6.346,1.762-9.792C232.532,208.873,232.09,206.051,231.267,203.395z"/>
		</g>
		
			<rect x="187.979" y="196.57" transform="matrix(0.7072 0.707 -0.707 0.7072 210.0714 -82)" style="fill:#4D4D4D;" width="32.119" height="32.119"/>
	</g>
</g>
<ellipse style="fill:#E1E1E1;" cx="288.34" cy="221.924" rx="21.616" ry="24.628"/>
<circle style="fill:#818282;" cx="288.639" cy="220.839" r="19.427"/>
<circle style="fill:#4D4D4D;" cx="288.639" cy="220.839" r="14.499"/>
<g>
	<circle style="fill:#B2B2B2;" cx="271.801" cy="157.191" r="5.56"/>
	<circle style="fill:#B2B2B2;" cx="215.57" cy="157.191" r="5.56"/>
</g>
<circle style="fill:#767676;" cx="244.3" cy="157.603" r="16.142"/>
<g>
	<g>
		<g>
			<path style="fill:#B2B2B2;" d="M234.87,146.684c-3.079,2.657-5.07,6.541-5.07,10.933c0,2.765,0.819,5.325,2.163,7.525
				l9.16-10.948L234.87,146.684z"/>
			<path style="fill:#B2B2B2;" d="M244.644,150.123c1.036-1.265,1.957-2.361,2.776-3.293l2.245-2.66
				c-1.661-0.666-3.465-1.051-5.366-1.051c-1.542,0-3.001,0.307-4.393,0.752l2.211,2.859
				C243.136,148.035,243.978,149.173,244.644,150.123z"/>
			<path style="fill:#B2B2B2;" d="M257.066,164.364c1.074-2.024,1.74-4.296,1.74-6.746c0-4.161-1.777-7.888-4.587-10.529
				l-5.916,6.765L257.066,164.364z"/>
			<path style="fill:#B2B2B2;" d="M244.868,157.943l-9.044,11.394c2.387,1.732,5.302,2.78,8.475,2.78
				c3.457,0,6.586-1.257,9.074-3.27l-6.582-8.363L244.868,157.943z"/>
		</g>
		<path style="fill:#81C681;" d="M257.066,164.364l-8.763-10.514l5.916-6.765c-1.317-1.239-2.851-2.238-4.557-2.915l-2.245,2.66
			c-0.819,0.932-1.74,2.028-2.776,3.293c-0.666-0.95-1.504-2.088-2.526-3.394l-2.211-2.859c-1.878,0.599-3.581,1.557-5.036,2.814
			l6.252,7.51l-9.16,10.948c1.003,1.643,2.309,3.068,3.861,4.195l9.044-11.394l1.923,2.541l6.582,8.363
			C254.892,167.62,256.146,166.1,257.066,164.364z"/>
	</g>
</g>
<circle style="fill:#357180;" cx="303.419" cy="157.603" r="9.579"/>
<path style="fill:#265E67;" d="M297.283,151.725h3.981l2.077,3.603l2.017-3.603h3.948l-3.648,5.673l3.989,6.035h-4.067l-2.312-3.764
	l-2.309,3.764h-4.045l4.037-6.099L297.283,151.725z"/>
<circle style="fill:#E79E2D;" cx="323.101" cy="137.914" r="9.579"/>
<path style="fill:#AC782B;" d="M317.167,133.064h12.744l-4.557,6.806v4.905h-3.626v-4.905L317.167,133.064z"/>
<circle style="fill:#E84849;" cx="342.82" cy="157.603" r="9.579"/>
<path style="fill:#B03738;" d="M338.319,151.676h6.776c1.134,0,1.994,0.273,2.601,0.834s0.909,1.253,0.909,2.08
	c0,0.692-0.217,1.283-0.651,1.781c-0.284,0.329-0.703,0.587-1.261,0.782c0.842,0.206,1.463,0.55,1.856,1.044
	c0.397,0.49,0.591,1.108,0.591,1.856c0,0.602-0.138,1.152-0.419,1.639c-0.281,0.486-0.67,0.864-1.16,1.152
	c-0.307,0.172-0.76,0.303-1.373,0.385c-0.812,0.105-1.355,0.157-1.624,0.157h-6.249v-11.712H338.319z"/>
<circle style="fill:#2F8442;" cx="323.101" cy="177.322" r="9.579"/>
<path style="fill:#256533;" d="M325.294,180.327h-4.108l-0.569,1.934h-3.693l4.404-11.708h3.948l4.4,11.708h-3.79L325.294,180.327z"
	/>
<g>
</g>
<g>
</g>
<g>
</g>
<g>
</g>
<g>
</g>
<g>
</g>
<g>
</g>
<g>
</g>
<g>
</g>
<g>
</g>
<g>
</g>
<g>
</g>
<g>
</g>
<g>
</g>
<g>
</g>
</svg>
